# xmcd
#
# Track frame offsets: 
#        150
#        28585
#        45687
#        58630
#        75938
#        93787
#        107005
#        126299
#        143058
#        159816
#
# Disc length: 2371 seconds
#
# Revision: 1
# Processed by: cddbd v1.5.2PL0 Copyright (c) Steve Scherf et al.
# Submitted via: ExactAudioCopy v0.95b4
#
DISCID=6f09410a
DTITLE=จ๊อบ and จอย - หมอลำพันลาย 5  เจ็บแค้นแทนน้อง
DYEAR=2003
DGENRE=Country
TTITLE0=เจ็บแค้นแทนน้อง
TTITLE1=จ๊อบจอยคอยรัก
TTITLE2=บ่หล่อขำใต้
TTITLE3=จริงใจคอยเมา
TTITLE4=เสียวฮักหักหลัง
TTITLE5=รักน้องต้องมีเรื่อนหอ
TTITLE6=สาวอำนาจขาดรัก
TTITLE7=วอนดาวคืนถิ่น
TTITLE8=ตั้งตารอคอย
TTITLE9=ของแซ่บอีสาน
EXTD=
EXTT0=
EXTT1=
EXTT2=
EXTT3=
EXTT4=
EXTT5=
EXTT6=
EXTT7=
EXTT8=
EXTT9=
PLAYORDER=
